<mxfile host="app.diagrams.net" agent="Mozilla/5.0 (X11; Ubuntu; Linux x86_64; rv:142.0) Gecko/20100101 Firefox/142.0" version="28.2.0">
  <diagram name="Page-1" id="XCabEsz14lC1qjqIhGBI">
    <mxGraphModel dx="1188" dy="688" grid="1" gridSize="10" guides="1" tooltips="1" connect="1" arrows="1" fold="1" page="1" pageScale="1" pageWidth="827" pageHeight="1169" math="0" shadow="0">
      <root>
        <mxCell id="0" />
        <mxCell id="1" parent="0" />
        <mxCell id="CDbbZEYeLlONDFFghWuM-3" value="Request Dispatcher" style="shape=umlLifeline;perimeter=lifelinePerimeter;whiteSpace=wrap;html=1;container=1;dropTarget=0;collapsible=0;recursiveResize=0;outlineConnect=0;portConstraint=eastwest;newEdgeStyle={&quot;edgeStyle&quot;:&quot;elbowEdgeStyle&quot;,&quot;elbow&quot;:&quot;vertical&quot;,&quot;curved&quot;:0,&quot;rounded&quot;:0};" vertex="1" parent="1">
          <mxGeometry x="30" y="20" width="100" height="280" as="geometry" />
        </mxCell>
        <mxCell id="CDbbZEYeLlONDFFghWuM-43" style="edgeStyle=orthogonalEdgeStyle;rounded=0;orthogonalLoop=1;jettySize=auto;html=1;curved=0;endArrow=block;endFill=1;" edge="1" parent="CDbbZEYeLlONDFFghWuM-3">
          <mxGeometry relative="1" as="geometry">
            <mxPoint x="45" y="70" as="targetPoint" />
            <mxPoint y="70" as="sourcePoint" />
          </mxGeometry>
        </mxCell>
        <mxCell id="CDbbZEYeLlONDFFghWuM-40" value="" style="html=1;points=[[0,0,0,0,5],[0,1,0,0,-5],[1,0,0,0,5],[1,1,0,0,-5]];perimeter=orthogonalPerimeter;outlineConnect=0;targetShapes=umlLifeline;portConstraint=eastwest;newEdgeStyle={&quot;curved&quot;:0,&quot;rounded&quot;:0};" vertex="1" parent="CDbbZEYeLlONDFFghWuM-3">
          <mxGeometry x="45" y="70" width="10" height="190" as="geometry" />
        </mxCell>
        <mxCell id="CDbbZEYeLlONDFFghWuM-45" value="Create replic request" style="text;html=1;align=center;verticalAlign=middle;whiteSpace=wrap;rounded=0;fontSize=7;" vertex="1" parent="1">
          <mxGeometry x="10" y="60" width="60" height="30" as="geometry" />
        </mxCell>
        <mxCell id="CDbbZEYeLlONDFFghWuM-46" value="User service" style="shape=umlLifeline;perimeter=lifelinePerimeter;whiteSpace=wrap;html=1;container=1;dropTarget=0;collapsible=0;recursiveResize=0;outlineConnect=0;portConstraint=eastwest;newEdgeStyle={&quot;edgeStyle&quot;:&quot;elbowEdgeStyle&quot;,&quot;elbow&quot;:&quot;vertical&quot;,&quot;curved&quot;:0,&quot;rounded&quot;:0};" vertex="1" parent="1">
          <mxGeometry x="160" y="20" width="100" height="280" as="geometry" />
        </mxCell>
        <mxCell id="CDbbZEYeLlONDFFghWuM-48" value="" style="html=1;points=[[0,0,0,0,5],[0,1,0,0,-5],[1,0,0,0,5],[1,1,0,0,-5]];perimeter=orthogonalPerimeter;outlineConnect=0;targetShapes=umlLifeline;portConstraint=eastwest;newEdgeStyle={&quot;curved&quot;:0,&quot;rounded&quot;:0};" vertex="1" parent="CDbbZEYeLlONDFFghWuM-46">
          <mxGeometry x="45" y="80" width="10" height="40" as="geometry" />
        </mxCell>
        <mxCell id="CDbbZEYeLlONDFFghWuM-49" style="edgeStyle=orthogonalEdgeStyle;rounded=0;orthogonalLoop=1;jettySize=auto;html=1;curved=0;endArrow=block;endFill=1;" edge="1" parent="1">
          <mxGeometry relative="1" as="geometry">
            <mxPoint x="205" y="100" as="targetPoint" />
            <mxPoint x="85" y="100" as="sourcePoint" />
          </mxGeometry>
        </mxCell>
        <mxCell id="CDbbZEYeLlONDFFghWuM-54" value="Check user exists, active, quota available" style="text;html=1;align=center;verticalAlign=middle;whiteSpace=wrap;rounded=0;fontSize=7;" vertex="1" parent="1">
          <mxGeometry x="110" y="70" width="60" height="30" as="geometry" />
        </mxCell>
        <mxCell id="CDbbZEYeLlONDFFghWuM-55" style="edgeStyle=orthogonalEdgeStyle;rounded=0;orthogonalLoop=1;jettySize=auto;html=1;curved=0;endArrow=block;endFill=1;dashed=1;dashPattern=8 8;" edge="1" parent="1" source="CDbbZEYeLlONDFFghWuM-48" target="CDbbZEYeLlONDFFghWuM-40">
          <mxGeometry relative="1" as="geometry">
            <mxPoint x="215" y="110" as="targetPoint" />
            <mxPoint x="95" y="110" as="sourcePoint" />
            <Array as="points">
              <mxPoint x="190" y="140" />
              <mxPoint x="190" y="140" />
            </Array>
          </mxGeometry>
        </mxCell>
        <mxCell id="CDbbZEYeLlONDFFghWuM-56" value="Return: yes" style="text;html=1;align=center;verticalAlign=middle;whiteSpace=wrap;rounded=0;fontSize=7;" vertex="1" parent="1">
          <mxGeometry x="110" y="120" width="60" height="20" as="geometry" />
        </mxCell>
        <mxCell id="CDbbZEYeLlONDFFghWuM-57" value="Database" style="shape=umlLifeline;perimeter=lifelinePerimeter;whiteSpace=wrap;html=1;container=1;dropTarget=0;collapsible=0;recursiveResize=0;outlineConnect=0;portConstraint=eastwest;newEdgeStyle={&quot;edgeStyle&quot;:&quot;elbowEdgeStyle&quot;,&quot;elbow&quot;:&quot;vertical&quot;,&quot;curved&quot;:0,&quot;rounded&quot;:0};" vertex="1" parent="1">
          <mxGeometry x="550" y="20" width="100" height="280" as="geometry" />
        </mxCell>
        <mxCell id="CDbbZEYeLlONDFFghWuM-58" value="" style="html=1;points=[[0,0,0,0,5],[0,1,0,0,-5],[1,0,0,0,5],[1,1,0,0,-5]];perimeter=orthogonalPerimeter;outlineConnect=0;targetShapes=umlLifeline;portConstraint=eastwest;newEdgeStyle={&quot;curved&quot;:0,&quot;rounded&quot;:0};" vertex="1" parent="CDbbZEYeLlONDFFghWuM-57">
          <mxGeometry x="45" y="90" width="10" height="20" as="geometry" />
        </mxCell>
        <mxCell id="CDbbZEYeLlONDFFghWuM-66" value="" style="html=1;points=[[0,0,0,0,5],[0,1,0,0,-5],[1,0,0,0,5],[1,1,0,0,-5]];perimeter=orthogonalPerimeter;outlineConnect=0;targetShapes=umlLifeline;portConstraint=eastwest;newEdgeStyle={&quot;curved&quot;:0,&quot;rounded&quot;:0};" vertex="1" parent="CDbbZEYeLlONDFFghWuM-57">
          <mxGeometry x="45" y="170" width="10" height="20" as="geometry" />
        </mxCell>
        <mxCell id="CDbbZEYeLlONDFFghWuM-59" style="edgeStyle=orthogonalEdgeStyle;rounded=0;orthogonalLoop=1;jettySize=auto;html=1;curved=0;endArrow=block;endFill=1;" edge="1" parent="1" target="CDbbZEYeLlONDFFghWuM-58">
          <mxGeometry relative="1" as="geometry">
            <mxPoint x="335" y="110" as="targetPoint" />
            <mxPoint x="215" y="110" as="sourcePoint" />
            <Array as="points">
              <mxPoint x="215" y="111" />
            </Array>
          </mxGeometry>
        </mxCell>
        <mxCell id="CDbbZEYeLlONDFFghWuM-60" value="Request user state" style="text;html=1;align=center;verticalAlign=middle;whiteSpace=wrap;rounded=0;fontSize=7;" vertex="1" parent="1">
          <mxGeometry x="230" y="80" width="60" height="30" as="geometry" />
        </mxCell>
        <mxCell id="CDbbZEYeLlONDFFghWuM-61" style="edgeStyle=orthogonalEdgeStyle;rounded=0;orthogonalLoop=1;jettySize=auto;html=1;curved=0;endArrow=block;endFill=1;dashed=1;dashPattern=8 8;" edge="1" parent="1" source="CDbbZEYeLlONDFFghWuM-58" target="CDbbZEYeLlONDFFghWuM-48">
          <mxGeometry relative="1" as="geometry">
            <mxPoint x="215" y="130" as="targetPoint" />
            <mxPoint x="335" y="130" as="sourcePoint" />
            <Array as="points">
              <mxPoint x="290" y="130" />
              <mxPoint x="290" y="130" />
            </Array>
          </mxGeometry>
        </mxCell>
        <mxCell id="CDbbZEYeLlONDFFghWuM-62" value="Replic service" style="shape=umlLifeline;perimeter=lifelinePerimeter;whiteSpace=wrap;html=1;container=1;dropTarget=0;collapsible=0;recursiveResize=0;outlineConnect=0;portConstraint=eastwest;newEdgeStyle={&quot;edgeStyle&quot;:&quot;elbowEdgeStyle&quot;,&quot;elbow&quot;:&quot;vertical&quot;,&quot;curved&quot;:0,&quot;rounded&quot;:0};" vertex="1" parent="1">
          <mxGeometry x="420" y="20" width="100" height="280" as="geometry" />
        </mxCell>
        <mxCell id="CDbbZEYeLlONDFFghWuM-63" value="" style="html=1;points=[[0,0,0,0,5],[0,1,0,0,-5],[1,0,0,0,5],[1,1,0,0,-5]];perimeter=orthogonalPerimeter;outlineConnect=0;targetShapes=umlLifeline;portConstraint=eastwest;newEdgeStyle={&quot;curved&quot;:0,&quot;rounded&quot;:0};" vertex="1" parent="CDbbZEYeLlONDFFghWuM-62">
          <mxGeometry x="45" y="160" width="10" height="80" as="geometry" />
        </mxCell>
        <mxCell id="CDbbZEYeLlONDFFghWuM-64" style="edgeStyle=orthogonalEdgeStyle;rounded=0;orthogonalLoop=1;jettySize=auto;html=1;curved=0;endArrow=block;endFill=1;" edge="1" parent="1" source="CDbbZEYeLlONDFFghWuM-40" target="CDbbZEYeLlONDFFghWuM-77">
          <mxGeometry relative="1" as="geometry">
            <mxPoint x="290" y="170" as="targetPoint" />
            <mxPoint x="95" y="110" as="sourcePoint" />
            <Array as="points">
              <mxPoint x="150" y="170" />
              <mxPoint x="150" y="170" />
            </Array>
          </mxGeometry>
        </mxCell>
        <mxCell id="CDbbZEYeLlONDFFghWuM-65" value="Add replic" style="text;html=1;align=center;verticalAlign=middle;whiteSpace=wrap;rounded=0;fontSize=7;" vertex="1" parent="1">
          <mxGeometry x="110" y="150" width="60" height="20" as="geometry" />
        </mxCell>
        <mxCell id="CDbbZEYeLlONDFFghWuM-67" style="edgeStyle=orthogonalEdgeStyle;rounded=0;orthogonalLoop=1;jettySize=auto;html=1;curved=0;endArrow=block;endFill=1;" edge="1" parent="1" source="CDbbZEYeLlONDFFghWuM-77" target="CDbbZEYeLlONDFFghWuM-63">
          <mxGeometry relative="1" as="geometry">
            <mxPoint x="345" y="180" as="targetPoint" />
            <mxPoint x="95" y="180" as="sourcePoint" />
            <Array as="points">
              <mxPoint x="380" y="180" />
              <mxPoint x="380" y="180" />
            </Array>
          </mxGeometry>
        </mxCell>
        <mxCell id="CDbbZEYeLlONDFFghWuM-68" value="Add replic" style="text;html=1;align=center;verticalAlign=middle;whiteSpace=wrap;rounded=0;fontSize=7;" vertex="1" parent="1">
          <mxGeometry x="370" y="160" width="60" height="20" as="geometry" />
        </mxCell>
        <mxCell id="CDbbZEYeLlONDFFghWuM-69" style="edgeStyle=orthogonalEdgeStyle;rounded=0;orthogonalLoop=1;jettySize=auto;html=1;curved=0;endArrow=block;endFill=1;dashed=1;dashPattern=8 8;" edge="1" parent="1" source="CDbbZEYeLlONDFFghWuM-66" target="CDbbZEYeLlONDFFghWuM-63">
          <mxGeometry relative="1" as="geometry">
            <mxPoint x="225" y="140" as="targetPoint" />
            <mxPoint x="515" y="140" as="sourcePoint" />
            <Array as="points">
              <mxPoint x="560" y="210" />
              <mxPoint x="560" y="210" />
            </Array>
          </mxGeometry>
        </mxCell>
        <mxCell id="CDbbZEYeLlONDFFghWuM-70" value="Filesystem service" style="shape=umlLifeline;perimeter=lifelinePerimeter;whiteSpace=wrap;html=1;container=1;dropTarget=0;collapsible=0;recursiveResize=0;outlineConnect=0;portConstraint=eastwest;newEdgeStyle={&quot;edgeStyle&quot;:&quot;elbowEdgeStyle&quot;,&quot;elbow&quot;:&quot;vertical&quot;,&quot;curved&quot;:0,&quot;rounded&quot;:0};" vertex="1" parent="1">
          <mxGeometry x="680" y="20" width="100" height="280" as="geometry" />
        </mxCell>
        <mxCell id="CDbbZEYeLlONDFFghWuM-72" value="" style="html=1;points=[[0,0,0,0,5],[0,1,0,0,-5],[1,0,0,0,5],[1,1,0,0,-5]];perimeter=orthogonalPerimeter;outlineConnect=0;targetShapes=umlLifeline;portConstraint=eastwest;newEdgeStyle={&quot;curved&quot;:0,&quot;rounded&quot;:0};" vertex="1" parent="CDbbZEYeLlONDFFghWuM-70">
          <mxGeometry x="45" y="210" width="10" height="20" as="geometry" />
        </mxCell>
        <mxCell id="CDbbZEYeLlONDFFghWuM-76" value="Request executor" style="shape=umlLifeline;perimeter=lifelinePerimeter;whiteSpace=wrap;html=1;container=1;dropTarget=0;collapsible=0;recursiveResize=0;outlineConnect=0;portConstraint=eastwest;newEdgeStyle={&quot;edgeStyle&quot;:&quot;elbowEdgeStyle&quot;,&quot;elbow&quot;:&quot;vertical&quot;,&quot;curved&quot;:0,&quot;rounded&quot;:0};" vertex="1" parent="1">
          <mxGeometry x="290" y="20" width="100" height="280" as="geometry" />
        </mxCell>
        <mxCell id="CDbbZEYeLlONDFFghWuM-77" value="" style="html=1;points=[[0,0,0,0,5],[0,1,0,0,-5],[1,0,0,0,5],[1,1,0,0,-5]];perimeter=orthogonalPerimeter;outlineConnect=0;targetShapes=umlLifeline;portConstraint=eastwest;newEdgeStyle={&quot;curved&quot;:0,&quot;rounded&quot;:0};" vertex="1" parent="CDbbZEYeLlONDFFghWuM-76">
          <mxGeometry x="45" y="150" width="10" height="100" as="geometry" />
        </mxCell>
        <mxCell id="CDbbZEYeLlONDFFghWuM-78" style="edgeStyle=orthogonalEdgeStyle;rounded=0;orthogonalLoop=1;jettySize=auto;html=1;curved=0;endArrow=block;endFill=1;" edge="1" parent="1" source="CDbbZEYeLlONDFFghWuM-63" target="CDbbZEYeLlONDFFghWuM-66">
          <mxGeometry relative="1" as="geometry">
            <mxPoint x="475" y="190" as="targetPoint" />
            <mxPoint x="355" y="190" as="sourcePoint" />
            <Array as="points">
              <mxPoint x="510" y="190" />
              <mxPoint x="510" y="190" />
            </Array>
          </mxGeometry>
        </mxCell>
        <mxCell id="CDbbZEYeLlONDFFghWuM-79" value="Add replic entity" style="text;html=1;align=center;verticalAlign=middle;whiteSpace=wrap;rounded=0;fontSize=7;" vertex="1" parent="1">
          <mxGeometry x="490" y="170" width="60" height="20" as="geometry" />
        </mxCell>
        <mxCell id="CDbbZEYeLlONDFFghWuM-80" style="edgeStyle=orthogonalEdgeStyle;rounded=0;orthogonalLoop=1;jettySize=auto;html=1;curved=0;endArrow=block;endFill=1;" edge="1" parent="1" source="CDbbZEYeLlONDFFghWuM-63" target="CDbbZEYeLlONDFFghWuM-72">
          <mxGeometry relative="1" as="geometry">
            <mxPoint x="605" y="200" as="targetPoint" />
            <mxPoint x="485" y="200" as="sourcePoint" />
            <Array as="points">
              <mxPoint x="660" y="230" />
              <mxPoint x="660" y="230" />
            </Array>
          </mxGeometry>
        </mxCell>
        <mxCell id="CDbbZEYeLlONDFFghWuM-81" value="Save files" style="text;html=1;align=center;verticalAlign=middle;whiteSpace=wrap;rounded=0;fontSize=7;" vertex="1" parent="1">
          <mxGeometry x="490" y="210" width="60" height="20" as="geometry" />
        </mxCell>
        <mxCell id="CDbbZEYeLlONDFFghWuM-82" style="edgeStyle=orthogonalEdgeStyle;rounded=0;orthogonalLoop=1;jettySize=auto;html=1;curved=0;endArrow=block;endFill=1;dashed=1;dashPattern=8 8;" edge="1" parent="1" source="CDbbZEYeLlONDFFghWuM-72" target="CDbbZEYeLlONDFFghWuM-63">
          <mxGeometry relative="1" as="geometry">
            <mxPoint x="485" y="220" as="targetPoint" />
            <mxPoint x="605" y="220" as="sourcePoint" />
            <Array as="points">
              <mxPoint x="600" y="250" />
              <mxPoint x="600" y="250" />
            </Array>
          </mxGeometry>
        </mxCell>
        <mxCell id="CDbbZEYeLlONDFFghWuM-83" style="edgeStyle=orthogonalEdgeStyle;rounded=0;orthogonalLoop=1;jettySize=auto;html=1;curved=0;endArrow=block;endFill=1;dashed=1;dashPattern=8 8;" edge="1" parent="1" source="CDbbZEYeLlONDFFghWuM-63" target="CDbbZEYeLlONDFFghWuM-77">
          <mxGeometry relative="1" as="geometry">
            <mxPoint x="485" y="220" as="targetPoint" />
            <mxPoint x="605" y="220" as="sourcePoint" />
            <Array as="points">
              <mxPoint x="400" y="260" />
              <mxPoint x="400" y="260" />
            </Array>
          </mxGeometry>
        </mxCell>
        <mxCell id="CDbbZEYeLlONDFFghWuM-84" value="Return: Replic model" style="text;html=1;align=center;verticalAlign=middle;whiteSpace=wrap;rounded=0;fontSize=7;" vertex="1" parent="1">
          <mxGeometry x="380" y="230" width="60" height="30" as="geometry" />
        </mxCell>
        <mxCell id="CDbbZEYeLlONDFFghWuM-85" style="edgeStyle=orthogonalEdgeStyle;rounded=0;orthogonalLoop=1;jettySize=auto;html=1;curved=0;endArrow=block;endFill=1;dashed=1;dashPattern=8 8;" edge="1" parent="1" source="CDbbZEYeLlONDFFghWuM-77" target="CDbbZEYeLlONDFFghWuM-40">
          <mxGeometry relative="1" as="geometry">
            <mxPoint x="355" y="270" as="targetPoint" />
            <mxPoint x="475" y="270" as="sourcePoint" />
            <Array as="points">
              <mxPoint x="270" y="270" />
              <mxPoint x="270" y="270" />
            </Array>
          </mxGeometry>
        </mxCell>
        <mxCell id="CDbbZEYeLlONDFFghWuM-86" value="Return: Replic model" style="text;html=1;align=center;verticalAlign=middle;whiteSpace=wrap;rounded=0;fontSize=7;" vertex="1" parent="1">
          <mxGeometry x="240" y="240" width="60" height="30" as="geometry" />
        </mxCell>
        <mxCell id="CDbbZEYeLlONDFFghWuM-87" style="edgeStyle=orthogonalEdgeStyle;rounded=0;orthogonalLoop=1;jettySize=auto;html=1;curved=0;endArrow=block;endFill=1;dashed=1;dashPattern=8 8;" edge="1" parent="1" source="CDbbZEYeLlONDFFghWuM-40">
          <mxGeometry relative="1" as="geometry">
            <mxPoint x="30" y="280" as="targetPoint" />
            <mxPoint x="345" y="280" as="sourcePoint" />
            <Array as="points">
              <mxPoint x="30" y="280" />
              <mxPoint x="30" y="280" />
            </Array>
          </mxGeometry>
        </mxCell>
        <mxCell id="CDbbZEYeLlONDFFghWuM-88" value="Return: HTTP response" style="text;html=1;align=center;verticalAlign=middle;whiteSpace=wrap;rounded=0;fontSize=7;" vertex="1" parent="1">
          <mxGeometry x="10" y="250" width="60" height="30" as="geometry" />
        </mxCell>
      </root>
    </mxGraphModel>
  </diagram>
</mxfile>
